<svg width="32" height="32" viewBox="0 0 32 32" fill="none" xmlns="http://www.w3.org/2000/svg">
  <!-- Fondo circular con gradiente -->
  <defs>
    <linearGradient id="bgGradient" x1="0%" y1="0%" x2="100%" y2="100%">
      <stop offset="0%" style="stop-color:#3B82F6;stop-opacity:1" />
      <stop offset="100%" style="stop-color:#8B5CF6;stop-opacity:1" />
    </linearGradient>
  </defs>
  
  <!-- Círculo de fondo -->
  <circle cx="16" cy="16" r="15" fill="url(#bgGradient)" stroke="#1F2937" stroke-width="1"/>
  
  <!-- Símbolo de código/desarrollo -->
  <g fill="white">
    <!-- Llaves de código -->
    <path d="M10 8h2v2h-2v-2zm0 4h2v2h-2v-2zm0 4h2v2h-2v-2zm0 4h2v2h-2v-2z"/>
    <path d="M20 8h2v2h-2v-2zm0 4h2v2h-2v-2zm0 4h2v2h-2v-2zm0 4h2v2h-2v-2z"/>
    
    <!-- Líneas de código -->
    <rect x="12" y="10" width="8" height="1" rx="0.5"/>
    <rect x="12" y="13" width="6" height="1" rx="0.5"/>
    <rect x="12" y="16" width="7" height="1" rx="0.5"/>
    <rect x="12" y="19" width="5" height="1" rx="0.5"/>
    <rect x="12" y="22" width="8" height="1" rx="0.5"/>
  </g>
  
  <!-- Punto decorativo -->
  <circle cx="16" cy="6" r="1" fill="#F59E0B"/>
</svg> 